<svg xmlns="http://www.w3.org/2000/svg" viewBox="0 0 304.998 304.998"><path d="M274.659 244.888c-8.944-3.663-12.77-8.524-12.4-15.777.381-7.466 4.266-14.095 15.035-23.251 8.279-7.032 10.35-10.978 10.35-16.977 0-8.683-5.816-14.632-13.95-14.632-6.334 0-12.28 3.357-15.886 8.936-4.73 7.314-6.707 24.315-13.231 34.067-4.06 6.069-12.475 11.286-27.342 16.977-9.407 3.599-22.25 9.84-32.128 14.632-9.405 4.572-19.007 5.7-27.342 18.66-18.483 28.749-45.533 45.361-72.95 45.361-27.419 0-54.47-16.612-72.95-45.361-8.334-12.96-17.936-14.089-27.342-18.661-9.878-4.792-22.721-11.033-32.128-14.632-14.867-5.69-23.281-10.907-27.342-16.977-6.524-9.752-8.501-26.753-13.231-34.067-3.606-5.579-9.552-8.936-15.886-8.936-8.134 0-13.95 5.95-13.95 14.632 0 6 2.07 9.945 10.35 16.977 10.769 9.156 14.654 15.785 15.035 23.251.371 7.253-3.456 12.114-12.4 15.777-22.394 9.445-38.438 25.534-38.438 42.216 0 17.129 15.729 30.786 36.509 36.572 20.782 5.786 48.724 6.283 69.72.343 22.346-6.326 35.318-17.789 58.195-17.789 22.876 0 35.85 11.463 58.195 17.789 20.996 5.94 48.937 5.442 69.72-.343 20.78-5.786 36.509-19.443 36.509-36.572-.003-16.682-16.045-32.771-38.441-42.216z" fill="#010002"/><path d="M185.212 83.412c.137 2.604-.665 5.289-1.425 7.979-.761 2.69-1.754 5.307-2.446 7.839-1.384 5.064-1.669 10.151.625 15.167.001.003.003.005.005.007.412.094 1.372.365 3.164.365 4.107 0 10.152-1.074 15.601-3.752 8.895-4.377 11.98-10.892 14.547-16.716 1.06-2.403 2.479-4.422 4.318-6.073 1.839-1.652 4.099-2.938 6.406-3.99 1.815-.829 3.651-1.591 5.425-2.443 1.774-.852 3.485-1.805 5.04-3.001 3.963-3.048 6.799-7.521 7.687-12.387.894-4.866.154-10.127-2.516-14.202-2.671-4.074-7.11-6.764-11.989-7.422-4.879-.658-9.858.876-13.732 3.776-3.333 2.493-5.629 5.533-7.261 8.828-.811 1.649-1.482 3.356-2.053 5.106-.57 1.75-1.041 3.543-1.416 5.381-1.498 7.352-2.182 15.623-4.93 22.803-1.071 2.799-2.459 5.485-4.606 7.717-1.226 1.275-2.7 2.346-4.346 3.164.158-3.962.532-7.924.839-11.877.307-3.953.614-7.905.921-11.858.461-5.908.968-11.809 1.476-17.71.252-2.951.504-5.903.757-8.854.252-2.952.516-5.904.658-8.874.142-2.97.171-5.967-.261-8.931-.332-2.255-.9-4.487-1.918-6.474-1.018-1.988-2.485-3.731-4.275-4.993-3.559-2.523-8.309-2.775-12.182-1.332-3.874 1.444-7.019 4.394-9.265 7.801-2.246 3.406-3.637 7.287-4.532 11.262-.894 3.975-1.292 8.058-1.515 12.137-.224 4.078-.273 8.167-.359 12.251-.087 4.085-.208 8.172-.27 12.261-.031 2.044-.068 4.088-.005 6.132.016.512.033 1.024.068 1.534-1.64-.819-3.116-1.891-4.341-3.167-2.147-2.232-3.534-4.918-4.606-7.717-2.747-7.18-3.431-15.451-4.93-22.803-.375-1.838-.846-3.631-1.416-5.381-.571-1.75-1.242-3.457-2.053-5.106-1.632-3.295-3.928-6.335-7.261-8.828-3.874-2.9-8.853-4.434-13.732-3.776-4.879.658-9.318 3.348-11.989 7.422-2.67 4.075-3.41 9.336-2.516 14.202.888 4.866 3.724 9.339 7.687 12.387 1.555 1.196 3.266 2.149 5.04 3.001 1.774.852 3.61 1.614 5.425 2.443 2.307 1.052 4.567 2.338 6.406 3.99 1.839 1.651 3.258 3.67 4.318 6.073 2.567 5.824 5.652 12.339 14.547 16.716 5.449 2.678 11.494 3.752 15.601 3.752 1.792 0 2.752-.271 3.164-.365.002-.002.004-.004.005-.007 2.293-5.016 2.008-10.103.625-15.167-.692-2.532-1.685-5.149-2.446-7.839-.76-2.69-1.562-5.375-1.425-7.979.087-1.686.702-3.225 2.146-4.354 1.444-1.129 3.099-1.587 4.748-1.899 3.298-.626 6.752-.839 10.196-.99 3.445-.15 6.898-.268 10.327-.573 1.714-.153 3.419-.391 5.068-.834 1.648-.443 3.24-1.092 4.627-2.075 2.776-1.967 4.412-5.147 4.585-8.392z" fill="#010002"/></svg>