<svg xmlns="http://www.w3.org/2000/svg" viewBox="0 0 100 100"><path d="M95 25.1L75.8 15.5c-1.6-.8-3.5-.7-5 .3L31.5 43.1l-16.7-12.7c-1.2-.9-2.9-.8-4 .2l-5.5 4.8c-1.2 1.1-1.3 2.9-.2 4.1l15.3 16.7-15.3 16.7c-1.1 1.2-1 3 .2 4.1l5.5 4.8c1.1 1 2.8 1.1 4 .2l16.7-12.7 39.3 27.3c1.5 1 3.4 1.1 5 .3L95 75.3c1.9-1 3-2.9 3-5V30.1c0-2.1-1.1-4-3-5z" fill="#0065A9"/><path d="M75.8 84.9c-1.6-.8-3.5-.7-5 .3L31.5 57.9l-16.7 12.7c-1.2.9-2.9.8-4-.2l-5.5-4.8c-1.2-1.1-1.3-2.9-.2-4.1l15.3-16.7-15.3-16.7c-1.1-1.2-1-3 .2-4.1l5.5-4.8c1.1-1 2.8-1.1 4-.2l16.7 12.7 39.3-27.3c1.5-1 3.4-1.1 5-.3L95 25.1c1.9 1 3 2.9 3 5v40.2c0 2.1-1.1 4-3 5L75.8 84.9z" fill="#007ACC"/><path d="M75.8 84.9c-1.6-.8-3.5-.7-5 .3l-39.3-27.3 39.3-27.3c1.5-1 3.4-1.1 5-.3L95 40.1v20.2L75.8 84.9z" fill="#1F9CF0"/></svg>